<mxfile host="app.diagrams.net" modified="2020-09-04T08:04:15.287Z" agent="5.0 (Windows NT 10.0; Win64; x64) AppleWebKit/537.36 (KHTML, like Gecko) Chrome/85.0.4183.83 Safari/537.36" etag="vM7U8rIE5hPlDmfO4yGn" version="13.6.6" type="github">
  <diagram id="wGuiLWKNx3WksCiHWMRU" name="Page-1">
    <mxGraphModel dx="1425" dy="762" grid="1" gridSize="10" guides="1" tooltips="1" connect="1" arrows="1" fold="1" page="1" pageScale="1" pageWidth="850" pageHeight="1100" math="0" shadow="0">
      <root>
        <mxCell id="0" />
        <mxCell id="1" parent="0" />
        <mxCell id="aIZFORbCO0NPMmtatlJX-40" style="edgeStyle=orthogonalEdgeStyle;rounded=0;orthogonalLoop=1;jettySize=auto;html=1;entryX=0.5;entryY=0;entryDx=0;entryDy=0;" edge="1" parent="1" source="aIZFORbCO0NPMmtatlJX-37" target="aIZFORbCO0NPMmtatlJX-38">
          <mxGeometry relative="1" as="geometry" />
        </mxCell>
        <mxCell id="aIZFORbCO0NPMmtatlJX-37" value="" style="shape=image;html=1;verticalAlign=top;verticalLabelPosition=bottom;labelBackgroundColor=#ffffff;imageAspect=0;aspect=fixed;image=https://cdn0.iconfinder.com/data/icons/48px_icons_collection_by_neweravin/48/start.png" vertex="1" parent="1">
          <mxGeometry x="30" y="40" width="48" height="48" as="geometry" />
        </mxCell>
        <mxCell id="aIZFORbCO0NPMmtatlJX-53" style="edgeStyle=orthogonalEdgeStyle;rounded=0;orthogonalLoop=1;jettySize=auto;html=1;" edge="1" parent="1" source="aIZFORbCO0NPMmtatlJX-38" target="aIZFORbCO0NPMmtatlJX-51">
          <mxGeometry relative="1" as="geometry">
            <Array as="points">
              <mxPoint x="170" y="170" />
            </Array>
          </mxGeometry>
        </mxCell>
        <mxCell id="aIZFORbCO0NPMmtatlJX-38" value="" style="image;html=1;image=img/lib/clip_art/general/Full_Folder_128x128.png" vertex="1" parent="1">
          <mxGeometry x="150" y="91" width="40" height="48" as="geometry" />
        </mxCell>
        <mxCell id="aIZFORbCO0NPMmtatlJX-41" value="&lt;font style=&quot;font-size: 9px&quot;&gt;Check Input&lt;br&gt;&amp;nbsp;Folder &lt;br&gt;for Vendor File&lt;/font&gt;" style="text;html=1;align=center;verticalAlign=middle;resizable=0;points=[];autosize=1;" vertex="1" parent="1">
          <mxGeometry x="87" y="83" width="70" height="50" as="geometry" />
        </mxCell>
        <mxCell id="aIZFORbCO0NPMmtatlJX-44" value="" style="rounded=0;whiteSpace=wrap;html=1;rotation=90;" vertex="1" parent="1">
          <mxGeometry x="-291.25" y="1133.75" width="2217.5" height="25" as="geometry" />
        </mxCell>
        <mxCell id="aIZFORbCO0NPMmtatlJX-55" style="edgeStyle=orthogonalEdgeStyle;rounded=0;orthogonalLoop=1;jettySize=auto;html=1;entryX=0.031;entryY=1.12;entryDx=0;entryDy=0;entryPerimeter=0;" edge="1" parent="1" source="aIZFORbCO0NPMmtatlJX-51" target="aIZFORbCO0NPMmtatlJX-44">
          <mxGeometry relative="1" as="geometry">
            <Array as="points">
              <mxPoint x="244" y="106" />
            </Array>
          </mxGeometry>
        </mxCell>
        <mxCell id="aIZFORbCO0NPMmtatlJX-51" value="" style="shape=image;html=1;verticalAlign=top;verticalLabelPosition=bottom;labelBackgroundColor=#ffffff;imageAspect=0;aspect=fixed;image=https://cdn1.iconfinder.com/data/icons/material-audio-video/22/queue-128.png" vertex="1" parent="1">
          <mxGeometry x="220" y="150" width="48" height="48" as="geometry" />
        </mxCell>
        <mxCell id="aIZFORbCO0NPMmtatlJX-54" value="Add All file &lt;br&gt;name&lt;br&gt;&amp;nbsp;to Queue" style="text;html=1;align=center;verticalAlign=middle;resizable=0;points=[];autosize=1;" vertex="1" parent="1">
          <mxGeometry x="209" y="198" width="70" height="50" as="geometry" />
        </mxCell>
      </root>
    </mxGraphModel>
  </diagram>
</mxfile>
